<svg xmlns="http://www.w3.org/2000/svg" xmlns:xlink="http://www.w3.org/1999/xlink" x="0px" y="0px" width="48px" height="48px" viewBox="0 0 48 48"><g >
<path fill="#92a3dd" d="M19.7,24.7h-4.3v4h4.1c0.6,0,1.8-0.2,1.8-1.9C21.3,24.6,19.7,24.7,19.7,24.7z"/>
<path fill="#92a3dd" d="M30.8,22.4c-2.3,0-2.6,2.3-2.6,2.3h4.9C33.1,24.7,33.1,22.4,30.8,22.4z"/>
<path fill="#92a3dd" d="M20.8,20.6c0-1.5-1.1-1.5-1.1-1.5h-0.6h-3.8v3.3h4.1C20.2,22.4,20.8,22.1,20.8,20.6z"/>
<path fill="#92a3dd" d="M24,0C10.7,0,0,10.7,0,24c0,13.3,10.7,24,24,24s24-10.7,24-24C48,10.7,37.3,0,24,0z M27.6,17.3h6.1v1.8h-6.1
V17.3z M24.5,26.9c0,4.5-4.7,4.4-4.7,4.4h-4.3h-0.1H12V16.4h3.3h0.1h4.3c2.4,0,4.2,1.3,4.2,4s-2.3,2.8-2.3,2.8
C24.7,23.2,24.5,26.9,24.5,26.9z M36,26.6h-7.7c0,2.8,2.6,2.6,2.6,2.6c2.5,0,2.4-1.6,2.4-1.6h2.6c0,4.2-5.1,4-5.1,4
c-6.1,0-5.7-5.7-5.7-5.7s0-5.7,5.7-5.7C36.8,20.2,36,26.6,36,26.6z"/>
</g></svg>