<svg xmlns="http://www.w3.org/2000/svg" xmlns:xlink="http://www.w3.org/1999/xlink" x="0px" y="0px" width="48px" height="48px" viewBox="0 0 48 48"><g >
<polygon fill="#92a3dd" points="14.1,22.3 14.1,25.7 16.6,24 "/>
<polygon fill="#92a3dd" points="14.9,27.7 23,33 23,28.2 18.5,25.2 "/>
<polygon fill="#92a3dd" points="33.1,20.3 25,15 25,19.8 29.5,22.8 "/>
<polygon fill="#92a3dd" points="24,21.6 20.4,24 24,26.4 27.6,24 "/>
<polygon fill="#92a3dd" points="23,19.8 23,15 14.9,20.3 18.5,22.8 "/>
<polygon fill="#92a3dd" points="25,28.2 25,33 33.1,27.7 29.5,25.2 "/>
<path fill="#92a3dd" d="M24,0C10.7,0,0,10.7,0,24c0,13.3,10.7,24,24,24s24-10.7,24-24C48,10.7,37.3,0,24,0z M36,27.7
c0,0,0,0.1,0,0.1c0,0,0,0,0,0c0,0,0,0.1,0,0.1c0,0,0,0,0,0c0,0,0,0.1,0,0.1c0,0,0,0,0,0c0,0,0,0,0,0.1c0,0,0,0,0,0c0,0,0,0,0,0.1
c0,0,0,0,0,0c0,0,0,0-0.1,0.1c0,0,0,0,0,0c0,0,0,0-0.1,0c0,0,0,0,0,0c0,0,0,0,0,0l-11,7.3C24.4,35.9,24.2,36,24,36
c-0.2,0-0.4-0.1-0.6-0.2l-11-7.3c0,0,0,0,0,0c0,0,0,0,0,0c0,0,0,0-0.1,0c0,0,0,0,0,0c0,0,0,0-0.1-0.1c0,0,0,0,0,0c0,0,0,0,0-0.1
c0,0,0,0,0,0c0,0,0,0,0-0.1c0,0,0,0,0,0c0,0,0-0.1,0-0.1c0,0,0,0,0,0c0,0,0-0.1,0-0.1c0,0,0,0,0,0c0,0,0-0.1,0-0.1v-7.3
c0,0,0-0.1,0-0.1c0,0,0,0,0,0c0,0,0-0.1,0-0.1c0,0,0,0,0,0c0,0,0-0.1,0-0.1c0,0,0,0,0-0.1c0,0,0,0,0-0.1c0,0,0,0,0,0c0,0,0,0,0-0.1
c0,0,0,0,0,0c0,0,0,0,0.1-0.1c0,0,0,0,0,0c0,0,0,0,0.1,0c0,0,0,0,0,0c0,0,0,0,0,0l11-7.3c0.3-0.2,0.8-0.2,1.1,0l11,7.3c0,0,0,0,0,0
c0,0,0,0,0,0c0,0,0,0,0.1,0c0,0,0,0,0,0c0,0,0,0,0.1,0.1c0,0,0,0,0,0c0,0,0,0,0,0.1c0,0,0,0,0,0c0,0,0,0,0,0.1c0,0,0,0,0,0.1
c0,0,0,0,0,0.1c0,0,0,0,0,0c0,0,0,0.1,0,0.1c0,0,0,0,0,0c0,0,0,0.1,0,0.1V27.7z"/>
<polygon fill="#92a3dd" points="33.9,25.7 33.9,22.3 31.4,24 "/>
</g></svg>