<svg xmlns="http://www.w3.org/2000/svg" xmlns:xlink="http://www.w3.org/1999/xlink" x="0px" y="0px" width="48px" height="48px" viewBox="0 0 48 48"><g >
<path fill="#92a3dd" d="M24,0C10.7,0,0,10.7,0,24c0,13.3,10.7,24,24,24s24-10.7,24-24C48,10.7,37.3,0,24,0z M27.4,33.6
c0,0-1.6,0.2-3.4,0.2s-3.4-0.2-3.4-0.2c-4.2-0.5-8.6-2.1-8.6-9.3c0-2.1,0.7-3.7,1.9-5c-0.2-0.5-0.8-2.4,0.2-5c0,0,1.6-0.5,5.2,1.9
c1.5-0.4,3.1-0.6,4.7-0.6c1.6,0,3.2,0.2,4.7,0.6c3.6-2.4,5.2-1.9,5.2-1.9c1,2.6,0.4,4.5,0.2,5c1.2,1.3,1.9,3,1.9,5
C36,31.5,31.6,33.1,27.4,33.6z"/>
</g></svg>