<svg xmlns="http://www.w3.org/2000/svg" width="48" height="48" viewBox="0 0 48 48"><g fill="#92a3dd"><path d="M19.7 24.7h-4.3v4h4.1c.6 0 1.8-.2 1.8-1.9 0-2.2-1.6-2.1-1.6-2.1zm11.1-2.3c-2.3 0-2.6 2.3-2.6 2.3h4.9s0-2.3-2.3-2.3zm-10-1.8c0-1.5-1.1-1.5-1.1-1.5h-4.4v3.3h4.1c.8 0 1.4-.3 1.4-1.8z"/><path d="M24 0C10.7 0 0 10.7 0 24s10.7 24 24 24 24-10.7 24-24S37.3 0 24 0zm3.6 17.3h6.1v1.8h-6.1v-1.8zm-3.1 9.6c0 4.5-4.7 4.4-4.7 4.4H12V16.4h7.7c2.4 0 4.2 1.3 4.2 4s-2.3 2.8-2.3 2.8c3.1 0 2.9 3.7 2.9 3.7zm11.5-.3h-7.7c0 2.8 2.6 2.6 2.6 2.6 2.5 0 2.4-1.6 2.4-1.6h2.6c0 4.2-5.1 4-5.1 4-6.1 0-5.7-5.7-5.7-5.7s0-5.7 5.7-5.7c6 0 5.2 6.4 5.2 6.4z"/></g></svg>