<svg xmlns="http://www.w3.org/2000/svg" width="48" height="48" viewBox="0 0 48 48"><g fill="#92a3dd"><path d="M14.1 22.3v3.4l2.5-1.7zm.8 5.4L23 33v-4.8l-4.5-3zm18.2-7.4L25 15v4.8l4.5 3zM24 21.6L20.4 24l3.6 2.4 3.6-2.4zm-1-1.8V15l-8.1 5.3 3.6 2.5zm2 8.4V33l8.1-5.3-3.6-2.5z"/><path d="M24 0C10.7 0 0 10.7 0 24s10.7 24 24 24 24-10.7 24-24S37.3 0 24 0zm12 27.7v.5l-.1.1h-.1l-11 7.3c-.4.3-.6.4-.8.4-.2 0-.4-.1-.6-.2l-11-7.3h-.1l-.1-.1V20l.1-.1h.1l11-7.3c.3-.2.8-.2 1.1 0l11 7.3h.1l.1.1v7.7z"/><path d="M33.9 25.7v-3.4L31.4 24z"/></g></svg>