<svg xmlns="http://www.w3.org/2000/svg" xmlns:xlink="http://www.w3.org/1999/xlink" x="0px" y="0px" width="64px" height="64px" viewBox="0 0 64 64"><g  transform="translate(0.5, 0.5)">
<path fill="none" stroke="#91a2df" stroke-width="3" stroke-linecap="round" stroke-miterlimit="10" d="M56,47.395
c-1.312,2.855-1.939,4.128-3.63,6.651c-2.355,3.522-5.677,7.909-9.794,7.945c-3.658,0.034-4.598-2.337-9.561-2.309
s-6,2.352-9.658,2.318c-4.117-0.037-7.263-3.997-9.62-7.522c-6.589-9.849-7.278-21.408-3.214-27.553
c2.888-4.369,7.446-6.922,11.73-6.922c4.362,0,7.104,2.349,10.712,2.349c3.499,0,5.631-2.352,10.675-2.352
c3.813,0,7.852,2.038,10.731,5.56C44.94,30.635,46.473,43.857,56,47.395L56,47.395z" stroke-linejoin="round"/>
<path data-color="color-2" fill="none" stroke="#91a2df" stroke-width="3" stroke-linecap="round" stroke-miterlimit="10" d="
M41.12,11.445c1.91-2.45,3.358-5.909,2.832-9.445c-3.119,0.213-6.765,2.198-8.895,4.784c-1.933,2.347-3.53,5.828-2.909,9.212
C35.551,16.103,39.074,14.07,41.12,11.445L41.12,11.445z" stroke-linejoin="round"/>
</g></svg>